<?xml version="1.0" standalone="no"?>
<!DOCTYPE svg PUBLIC "-//W3C//DTD SVG 20010904//EN"
 "http://www.w3.org/TR/2001/REC-SVG-20010904/DTD/svg10.dtd">
<svg version="1.0" xmlns="http://www.w3.org/2000/svg"
 width="560.000000pt" height="560.000000pt" viewBox="0 0 560.000000 560.000000"
 preserveAspectRatio="xMidYMid meet">
<metadata>
Created by potrace 1.14, written by Peter Selinger 2001-2017
</metadata>
<g transform="translate(0.000000,560.000000) scale(0.100000,-0.100000)"
fill="#000000" stroke="none">
<path d="M4187 5154 c-2 -2 -938 -17 -968 -16 -10 0 -64 -98 -169 -310 -85
-170 -157 -311 -161 -314 -4 -2 -56 -13 -116 -23 -199 -35 -306 -85 -415 -193
l-53 -53 -570 -1 c-314 -1 -573 -2 -577 -3 -7 -1 -90 -135 -100 -161 -5 -13
71 -15 657 -15 l662 0 67 62 c82 77 218 146 320 164 97 16 234 6 322 -24 l71
-25 38 67 c21 36 54 95 74 129 20 35 41 71 46 80 6 10 46 79 89 155 43 75 82
140 87 143 7 4 375 14 662 18 l88 1 40 -75 c38 -71 84 -156 171 -317 125 -232
149 -279 151 -284 1 -3 -155 -274 -348 -602 l-350 -596 -35 3 c-53 4 -149 -17
-212 -47 -114 -54 -217 -192 -233 -312 -4 -27 -8 -59 -10 -70 -10 -71 43 -222
105 -297 41 -50 142 -115 204 -133 106 -30 234 -22 318 20 111 57 202 163 234
274 32 110 15 255 -43 362 l-24 46 346 599 c191 329 365 629 386 665 l40 66
-39 69 c-22 38 -126 227 -232 419 -183 333 -207 376 -260 470 -12 22 -26 45
-31 50 -8 8 -224 16 -232 9z m-237 -2465 c84 -47 117 -149 77 -239 -65 -150
-267 -155 -341 -7 -36 71 -27 143 26 206 57 67 159 84 238 40z"/>
<path d="M2865 4102 c-61 -7 -137 -34 -188 -68 -58 -39 -137 -120 -164 -171
l-18 -34 -768 2 c-422 1 -769 0 -771 -2 -5 -5 -389 -638 -441 -728 -5 -9 -43
-72 -84 -139 -82 -135 -80 -120 -24 -213 62 -102 169 -280 178 -297 6 -10 95
-161 200 -336 l190 -318 140 7 c77 4 156 8 176 10 20 2 90 6 155 10 65 3 144
8 175 11 l55 5 49 -63 c129 -165 269 -267 413 -298 69 -16 58 -4 145 -160 17
-30 48 -83 69 -118 21 -34 38 -64 38 -66 0 -2 35 -64 78 -137 43 -74 130 -223
192 -331 l114 -198 45 -1 c26 -1 70 -2 99 -3 29 -1 55 1 57 4 2 4 -25 55 -61
115 -35 59 -64 109 -64 111 0 1 -39 69 -86 151 -167 286 -237 408 -248 428
-84 154 -202 346 -215 349 -9 3 -27 7 -41 10 -47 7 -147 53 -206 94 -119 81
-208 204 -249 346 -19 66 -23 83 -24 109 -1 16 -24 17 -334 17 l-334 0 -45 73
c-69 110 -324 529 -336 552 -8 17 1 38 59 130 37 61 80 130 95 155 30 49 236
383 240 388 3 4 569 1 1344 -8 42 0 46 -3 63 -39 22 -48 89 -119 146 -155 128
-81 288 -90 426 -25 152 72 247 223 246 389 0 41 -2 82 -4 90 -36 143 -116
250 -232 308 -72 36 -171 53 -250 44z m145 -273 c63 -35 101 -110 93 -183 -10
-101 -105 -179 -205 -170 -139 14 -215 162 -147 284 51 91 166 121 259 69z"/>
<path d="M5127 3867 c-9 -18 -30 -54 -46 -82 -17 -27 -39 -66 -50 -85 -11 -19
-138 -241 -283 -492 l-265 -458 19 -72 c20 -76 26 -180 14 -259 -21 -150 -115
-307 -245 -410 l-23 -19 22 -37 c26 -44 53 -90 88 -153 32 -56 142 -246 189
-323 l35 -59 -23 -46 c-13 -26 -49 -92 -80 -147 -49 -90 -74 -135 -169 -311
-16 -28 -42 -75 -59 -105 l-31 -55 -72 2 c-546 15 -698 21 -702 25 -3 5 -124
217 -163 287 -14 26 -73 130 -131 232 -58 102 -116 205 -130 230 -14 25 -77
135 -139 245 l-114 200 30 61 c91 184 58 388 -84 523 -158 149 -390 164 -562
37 -95 -69 -149 -158 -174 -284 -16 -77 -2 -176 37 -258 32 -68 111 -155 171
-188 64 -36 165 -66 234 -68 l58 -2 83 -144 c46 -79 90 -156 98 -170 86 -151
138 -242 220 -382 53 -91 99 -172 102 -180 4 -8 65 -114 136 -235 l128 -220
69 -2 c209 -5 792 -16 933 -17 l164 -1 100 180 c55 99 112 201 127 227 14 25
58 104 97 175 39 70 83 148 97 173 166 297 165 295 155 314 -10 19 -321 493
-358 546 -17 24 -17 27 13 100 76 188 94 373 50 502 l-20 58 25 42 c13 24 34
61 47 83 12 22 131 228 264 458 l242 418 -46 84 c-25 46 -49 86 -54 89 -4 3
-15 -9 -24 -27z m-2617 -1465 c65 -40 92 -91 87 -169 -2 -52 -8 -69 -34 -100
-45 -56 -88 -78 -155 -78 -47 0 -64 6 -99 30 -23 17 -53 50 -67 75 -57 107 10
243 132 270 47 10 86 2 136 -28z"/>
</g>
</svg>
